<svg xmlns="http://www.w3.org/2000/svg" width="155" height="85.01" viewBox="0 0 155 85.01">
	<style type="text/css">
		.st2{stroke:#ffffff;fill:none;stroke-width:1;}
		.st1{fill:#ffffff;}
		.st0{fill:#bf0558;}
	</style>
	<path class="st0" d="M155 -85.01L0 -85.01L0 0L155 0Z"/>
	<path class="st1" d="M17.36,55.7C17.36,56.33 17.57,56.5 17.87,56.65C18.61,57.04 19.53,57.19 20.24,57.19C23.32,57.19 24.84,54.81 24.84,52.32C24.84,49.92 23.38,47.7 19.71,47.7C18.79,47.7 17.96,47.82 17.57,48.59C17.42,48.91 17.36,49.39 17.36,50.4ZM13.72,50.45C13.72,48.44 13.36,47.9 11.91,47.73C10.87,47.64 10.78,47.67 10.78,47.19C10.78,46.93 10.84,46.69 11.52,46.69C12.89,46.69 14.28,46.81 15.64,46.81C16.59,46.81 17.54,46.75 18.49,46.69C19.2,46.66 19.94,46.63 20.66,46.63C26.97,46.63 28.48,50.01 28.48,52.44C28.48,55.97 25.73,58.55 21.93,58.55C20.77,58.55 19.77,58.34 18.85,58.05C18.13,57.81 17.93,57.72 17.69,57.72C17.34,57.72 17.36,58.08 17.36,58.25L17.36,63.65C17.36,66.38 18.37,66.29 20.06,66.41C20.45,66.44 20.74,66.44 20.74,66.91C20.74,67.12 20.66,67.44 20,67.44C18.58,67.44 17.16,67.27 15.73,67.27C14.34,67.27 12.95,67.44 11.52,67.44C11.32,67.44 10.78,67.44 10.78,66.91C10.78,66.73 10.81,66.44 11.46,66.41C13.39,66.32 13.72,65.69 13.72,63.65Z"/>
	<path class="st1" d="M47.55,64.72C49.21,62.82 49.95,60.09 49.95,57.63C49.95,55.14 49.3,52.38 47.81,50.25C46.39,48.2 44.46,47.13 42.03,47.13C39.39,47.13 37.7,48.47 36.81,49.42C35.6,50.75 34.44,52.92 34.44,56.5C34.44,59.53 35.24,61.99 36.55,63.86C38.03,65.96 39.93,67 42.39,67C44.7,67 46.36,66.05 47.55,64.72M34.26,65.19C31.68,62.91 30.56,59.85 30.56,56.95C30.56,54.87 31.12,51.58 34.26,48.91C36.22,47.25 38.8,46.13 42.21,46.13C45.03,46.13 47.75,46.84 50.13,48.94C52.68,51.2 53.83,54.28 53.83,57.16C53.83,59.26 53.27,62.55 50.1,65.22C48.64,66.44 46.03,68.01 42.18,68.01C38.39,68.01 35.81,66.55 34.26,65.19"/>
	<path class="st1" d="M75.3,50.01C75.36,50.54 75.48,51.34 74.85,51.34C74.53,51.34 74.32,51.08 73.67,50.07C73.11,49.15 71.92,47.13 68.66,47.13C63.44,47.13 60.39,51.55 60.39,56.86C60.39,62.88 63.85,67 68.42,67C69.7,67 70.88,66.64 71.98,65.75C73.43,64.57 74.02,63 74.56,62.17C74.68,61.99 74.8,61.84 75.06,61.84C75.77,61.84 75.57,62.85 75.51,63.77L75.42,64.89C75.36,65.55 75.39,66.17 73.76,66.85C71.56,67.77 69.81,68.01 68.27,68.01C61.93,68.01 56.5,63.86 56.5,57.19C56.5,50.93 61.63,46.13 68.69,46.13C70.56,46.13 73.08,46.57 74.35,47.07C74.94,47.31 75.03,47.49 75.15,48.68Z"/>
	<path class="st1" d="M96.74,50.01C96.8,50.54 96.91,51.34 96.29,51.34C95.97,51.34 95.76,51.08 95.11,50.07C94.54,49.15 93.36,47.13 90.09,47.13C84.88,47.13 81.82,51.55 81.82,56.86C81.82,62.88 85.29,67 89.86,67C91.13,67 92.32,66.64 93.42,65.75C94.87,64.57 95.46,63 96,62.17C96.11,61.99 96.23,61.84 96.5,61.84C97.21,61.84 97,62.85 96.94,63.77L96.85,64.89C96.8,65.55 96.83,66.17 95.19,66.85C93,67.77 91.25,68.01 89.71,68.01C83.36,68.01 77.94,63.86 77.94,57.19C77.94,50.93 83.07,46.13 90.12,46.13C91.99,46.13 94.51,46.57 95.79,47.07C96.38,47.31 96.47,47.49 96.59,48.68Z"/>
	<path class="st1" d="M115.92,50.22L115.92,50.07C115.92,47.99 115.06,47.76 113.64,47.7C113.04,47.67 112.98,47.46 112.98,47.19C112.98,46.81 113.1,46.69 113.72,46.69C115.09,46.69 116.51,46.87 117.9,46.87C119.18,46.87 120.48,46.69 121.76,46.69C121.97,46.69 122.5,46.69 122.5,47.19C122.5,47.64 122.15,47.67 121.82,47.7C120.34,47.82 119.57,47.85 119.57,50.46L119.57,63.65C119.57,66.26 120.34,66.29 121.82,66.41C122.18,66.44 122.5,66.44 122.5,66.91C122.5,67.42 121.97,67.45 121.76,67.45C120.43,67.45 119.06,67.27 117.73,67.27C116.39,67.27 115.06,67.45 113.72,67.45C113.46,67.45 112.98,67.42 112.98,66.91C112.98,66.44 113.37,66.44 113.67,66.41C115.24,66.29 115.92,66.11 115.92,63.65L115.92,52.09L105.66,63.41L105.66,63.86C105.66,66.17 106.43,66.29 107.91,66.41C108.27,66.44 108.6,66.44 108.6,66.91C108.6,67.42 108.06,67.45 107.85,67.45C106.52,67.45 105.16,67.27 103.82,67.27C102.49,67.27 101.15,67.45 99.82,67.45C99.55,67.45 99.08,67.42 99.08,66.91C99.08,66.44 99.46,66.44 99.76,66.41C101.33,66.29 102.01,66.11 102.01,63.65L102.01,50.46C102.01,48.02 101.36,47.79 99.73,47.7C99.14,47.67 99.08,47.46 99.08,47.19C99.08,46.81 99.2,46.69 99.82,46.69C101.12,46.69 102.49,46.87 103.82,46.87C105.16,46.87 106.52,46.69 107.85,46.69C108.06,46.69 108.6,46.69 108.6,47.19C108.6,47.64 108.24,47.67 107.91,47.7C106.43,47.82 105.66,47.85 105.66,50.46L105.66,61.57Z"/>
	<path class="st1" d="M136.94,49.62C136.94,47.73 136.32,47.7 134.84,47.7C133.65,47.7 132.23,47.79 131.13,49.06C130.39,49.92 130.21,50.96 130.21,51.82C130.21,53.72 130.95,54.72 131.4,55.14C132.58,56.27 134.57,56.38 135.55,56.38C136.64,56.38 136.94,56.35 136.94,55.44ZM136.94,58.16C136.94,57.39 136.67,57.39 136.23,57.39L135.81,57.39C135.31,57.39 134.75,57.54 134.39,57.81C133.89,58.16 133.59,58.76 133.18,59.47L129.29,66.32C129.11,66.64 129,66.97 128.73,67.21C128.46,67.44 128.13,67.44 127.78,67.44C127.16,67.44 126.56,67.36 125.97,67.36C125.23,67.36 124.49,67.44 123.75,67.44C123.3,67.44 123.09,67.36 123.09,66.91C123.09,66.61 123.3,66.5 123.63,66.44C124.04,66.38 124.43,66.38 124.84,66.14C125.29,65.87 125.67,65.31 126.12,64.6L129.65,58.7C130.03,58.05 130.71,57.13 131.96,57.07L131.96,56.98C130.8,56.95 129.62,56.62 128.73,56.12C126.74,54.99 126.33,53.21 126.33,52C126.33,50.45 126.95,49.06 128.02,48.11C129.59,46.72 131.57,46.69 133.38,46.69C136.73,46.69 136.76,46.81 138.57,46.81C139.96,46.81 141.39,46.69 142.78,46.69C143.23,46.69 143.52,46.72 143.52,47.19C143.52,47.67 143.02,47.7 142.84,47.7C140.91,47.79 140.59,48.41 140.59,50.45L140.59,63.65C140.59,66.38 141.51,66.29 142.87,66.41C143.35,66.44 143.52,66.53 143.52,66.91C143.52,67.44 142.9,67.44 142.78,67.44C141.42,67.44 140.08,67.27 138.75,67.27C137.42,67.27 136.08,67.44 134.75,67.44C134.48,67.44 134.01,67.41 134.01,66.91C134.01,66.44 134.39,66.44 134.69,66.41C136.26,66.29 136.94,66.11 136.94,63.65Z"/>
	<path class="st1" d="M19.9,28.99C19.77,28.82 19.67,28.56 19.57,28.26C19.47,27.96 19.39,27.6 19.31,27.23C19.11,26.39 18.99,25.86 18.89,25.46C18.79,25.08 18.7,24.85 18.6,24.63C18.18,23.64 17.51,23.41 16.66,23.41L15.05,23.41L15.05,29.52L13.84,29.52L13.84,16.65L15.05,16.65L15.05,22.18L16.54,22.18C17.96,22.18 18.7,21.77 19.15,19.22C19.25,18.59 19.37,17.73 19.71,17.2C20.1,16.6 20.66,16.57 20.99,16.57C21.11,16.57 21.21,16.6 21.31,16.6L21.31,17.78L21.15,17.78C20.91,17.83 20.62,17.89 20.4,18.26C20.2,18.57 20.08,19.27 20.06,19.53L19.92,20.49C19.69,21.85 19.11,22.43 18.38,22.58L18.38,22.98C19.39,23.09 19.75,23.84 19.98,24.65C20.16,25.33 20.3,25.96 20.42,26.47C20.54,26.97 20.64,27.43 20.76,27.73C20.97,28.29 21.21,28.39 21.65,28.39C21.71,28.39 21.79,28.39 21.86,28.36L21.86,29.57C21.69,29.6 21.51,29.6 21.35,29.6C20.56,29.6 20.16,29.37 19.9,28.99"/>
	<path class="st1" d="M34.76,21.9C34.76,21.42 34.78,20.64 34.96,18.72C34.52,20.03 34.46,20.18 34.34,20.46C34.22,20.74 33.99,21.14 33.65,21.72L29.75,28.39L29.75,29.52L28.54,29.52L28.54,16.65L29.75,16.65L29.75,24.42C29.75,25.26 29.73,25.26 29.65,27.28C30.3,25.41 30.6,24.85 30.92,24.3L34.76,17.66L34.76,16.65L35.99,16.65L35.99,29.52L34.76,29.52Z"/>
	<path class="st1" d="M50.15,23.41L45.14,23.41L45.14,29.52L43.93,29.52L43.93,16.65L45.14,16.65L45.14,22.18L50.15,22.18L50.15,16.65L51.38,16.65L51.38,29.52L50.15,29.52Z"/>
	<path class="st1" d="M59.99,23.09C59.99,27.53 61.64,28.46 62.94,28.46C64.25,28.46 65.91,27.53 65.91,23.09C65.91,18.64 64.25,17.71 62.94,17.71C61.64,17.71 59.99,18.64 59.99,23.09M58.53,23.09C58.53,18.84 60.43,16.4 62.94,16.4C65.46,16.4 67.36,18.84 67.36,23.09C67.36,27.33 65.46,29.78 62.94,29.78C60.43,29.78 58.53,27.33 58.53,23.09"/>
	<path class="st1" d="M82.45,29.45L74.53,29.45L74.53,16.65L75.74,16.65L75.74,28.24L80.95,28.24L80.95,16.65L82.17,16.65L82.17,28.24L83.54,28.24L83.54,32.98L82.45,32.98Z"/>
	<path class="st1" d="M94.2,17.61C93.17,17.61 92.36,18.26 91.9,19.05C91.45,19.78 91.19,20.79 91.15,21.95L96.99,21.95C96.95,20.94 96.81,19.93 96.48,19.25C96.14,18.52 95.47,17.61 94.2,17.61M91.44,26.01C91.96,27.68 92.93,28.46 94.2,28.46C95.35,28.46 96.04,27.78 96.42,27.25C96.69,26.87 96.89,26.39 97.03,25.94L98.2,26.24C97.92,27.25 97.43,28.13 96.67,28.82C95.9,29.5 95.09,29.78 94.14,29.78C92.77,29.78 91.68,29.17 90.83,27.91C89.96,26.64 89.64,25 89.64,23.19C89.64,19.73 91.11,16.39 94.18,16.39C97.82,16.39 98.42,20.76 98.42,22.91L98.42,23.19L91.09,23.19C91.07,24.27 91.19,25.23 91.44,26.01"/>
	<path class="st1" d="M111.71,23.41L106.7,23.41L106.7,29.52L105.49,29.52L105.49,16.65L106.7,16.65L106.7,22.18L111.71,22.18L111.71,16.65L112.94,16.65L112.94,29.52L111.71,29.52Z"/>
	<path class="st1" d="M123.73,29.52L122.52,29.52L122.52,17.86L119.33,17.86L119.33,16.65L126.92,16.65L126.92,17.86L123.73,17.86Z"/>
	<path class="st1" d="M137.34,17.71C136.6,17.71 135.95,18.06 135.4,18.79C134.64,19.88 134.54,20.99 134.54,21.65L134.54,24.4C134.54,25.1 134.62,26.22 135.28,27.2C135.87,28.06 136.66,28.36 137.32,28.36C137.95,28.36 138.84,28.03 139.44,26.72C139.95,25.69 140.09,24.2 140.09,22.98C140.09,20.76 139.65,19.68 139.46,19.27C138.88,18.01 138.01,17.71 137.34,17.71M137.61,29.7C136.07,29.7 135.28,28.64 134.84,27.38L134.54,27.38L134.54,33.71L133.32,33.71L133.32,16.65L134.41,16.65L134.41,19.4L134.72,19.02C135.1,17.78 136.01,16.39 137.61,16.39C138.82,16.39 139.69,16.98 140.29,17.86C141.14,19.07 141.54,21.12 141.54,22.96C141.54,24.7 141.2,26.54 140.49,27.81C139.97,28.71 139.08,29.7 137.61,29.7"/>
	<path class="st2" d="M10.78,36.46L143.52,36.46"/>
</svg>