<svg xmlns="http://www.w3.org/2000/svg"
 xmlns:xlink="http://www.w3.org/1999/xlink"
 width="19px" height="17px"  viewBox="0 0 19 17">
<path fill-rule="evenodd"  fill="#ffffff"
 d="M3.9997559,9.9991455 C3.9997559,9.9991455 15.999756,9.9991455 15.999756,9.9991455 C15.999756,9.9991455 15.999756,15.9993515 15.999756,15.9993515 C15.999756,15.9993515 10.999573,15.998226 10.999573,15.998226 C10.999573,15.998226 10.999573,11.997274 10.999573,11.997274 C10.999573,11.997274 8.999634,12.997934 8.999634,12.997934 C8.999634,12.997934 8.999634,15.998226 8.999634,15.998226 C8.999634,15.998226 3.9997559,15.9993515 3.9997559,15.9993515 C3.9997559,15.9993515 3.9997559,9.9991455 3.9997559,9.9991455 ZM17.999573,9.997644 C17.999573,9.997644 1.9996948,9.997644 1.9996948,9.997644 C1.9996948,9.997644 9.999573,1.9974327 9.999573,1.9974327 C9.999573,1.9974327 17.999573,9.997644 17.999573,9.997644 Z"/>
</svg>