<svg xmlns="http://www.w3.org/2000/svg"
 xmlns:xlink="http://www.w3.org/1999/xlink"
 width="21px" height="21px"  viewBox="0 0 21 21">
<path fill-rule="evenodd"  fill="#ffffff"
 d="M5.999939,1.9997559 C5.999939,1.9997559 15.999939,1.9997559 15.999939,1.9997559 C18.209106,1.9997559 19.999878,3.7907715 19.999878,5.999756 C19.999878,5.999756 19.999878,15.999756 19.999878,15.999756 C19.999878,18.208984 18.209106,19.999756 15.999939,19.999756 C15.999939,19.999756 5.999939,19.999756 5.999939,19.999756 C3.7908325,19.999756 1.9998779,18.208984 1.9998779,15.999756 C1.9998779,15.999756 1.9998779,5.999756 1.9998779,5.999756 C1.9998779,3.7907715 3.7908325,1.9997559 5.999939,1.9997559 ZM6.499939,3.5 C6.499939,3.5 15.468689,3.5 15.468689,3.5 C17.12555,3.5 18.468689,4.8430176 18.468689,6.5 C18.468689,6.5 18.468689,15.46875 18.468689,15.46875 C18.468689,17.125488 17.12555,18.468506 15.468689,18.468506 C15.468689,18.468506 6.499939,18.468506 6.499939,18.468506 C4.8431396,18.468506 3.5,17.125488 3.5,15.46875 C3.5,15.46875 3.5,6.5 3.5,6.5 C3.5,4.8430176 4.8431396,3.5 6.499939,3.5 ZM10.999878,7.0 C13.209045,7.0 14.999939,8.7907715 14.999939,11.0 C14.999939,13.208984 13.209045,15.0 10.999878,15.0 C8.7907715,15.0 6.999939,13.208984 6.999939,11.0 C6.999939,8.7907715 8.7907715,7.0 10.999878,7.0 ZM10.984253,8.46875 C12.373596,8.46875 13.5,9.594971 13.5,10.984375 C13.5,12.373535 12.373596,13.5 10.984253,13.5 C9.59491,13.5 8.468689,12.373535 8.468689,10.984375 C8.468689,9.594971 9.59491,8.46875 10.984253,8.46875 ZM14.999939,5.999756 C15.552246,5.999756 15.999939,6.44751 15.999939,7.0 C15.999939,7.552246 15.552246,7.999756 14.999939,7.999756 C14.447632,7.999756 14.0,7.552246 14.0,7.0 C14.0,6.44751 14.447632,5.999756 14.999939,5.999756 Z"/>
</svg>