<svg xmlns="http://www.w3.org/2000/svg"
 xmlns:xlink="http://www.w3.org/1999/xlink"
 width="22px" height="23px"  viewBox="0 0 22 23">
<path fill-rule="evenodd"  fill="#ffffff"
 d="M1.9997559,20.998138 C1.9997559,20.998138 1.736206,19.02853 2.7545166,18.129005 C3.267456,17.675304 3.7216797,17.403984 4.1174316,17.267761 C4.5130615,17.131538 6.088867,16.308567 6.088867,16.308567 C6.088867,16.308567 8.53125,15.1450405 8.53125,15.1450405 C8.53125,15.1450405 8.849121,13.277506 8.849121,13.277506 C8.849121,13.277506 8.079346,12.540474 7.8012695,11.688608 C7.5230713,10.837683 7.486084,10.379101 7.486084,10.379101 C7.486084,10.379101 6.8306885,10.483801 6.7473145,9.795368 C6.6638184,9.106934 6.6082764,7.8640366 6.6082764,7.8640366 C6.6082764,7.8640366 7.050293,7.529295 7.050293,7.529295 C7.050293,7.529295 6.960083,6.5789204 7.0528564,5.737564 C7.1453857,4.896019 7.6065674,4.1976395 8.329834,3.8058567 C9.0529785,3.4135113 10.123047,2.6678486 10.123047,2.6678486 C10.123047,2.6678486 10.197266,3.3671646 10.197266,3.3671646 C10.197266,3.3671646 10.397339,2.8909473 10.72583,2.5528278 C10.981323,2.2899513 11.346924,1.9981766 11.346924,1.9981766 C11.346924,1.9981766 11.29126,2.5318127 11.309326,2.6772308 C11.345093,2.9611225 11.541748,3.2041092 11.541748,3.2041092 C11.541748,3.2041092 11.532471,2.6961803 11.532471,2.6961803 C11.532471,2.6961803 12.641235,3.2316933 13.3272705,3.7486286 C14.013306,4.2646255 14.844727,4.43725 14.9375,5.8432026 C15.030273,7.248966 14.953125,7.576578 14.953125,7.576578 C14.953125,7.576578 15.432251,7.850338 15.432251,7.850338 C15.432251,7.850338 15.308838,9.473009 15.265381,9.81488 C15.180542,10.483614 14.537109,10.399929 14.537109,10.399929 C14.537109,10.399929 14.493774,11.017061 14.188843,11.766478 C13.891846,12.495815 13.123169,13.295706 13.123169,13.295706 C13.123169,13.295706 13.436768,15.145979 13.436768,15.145979 C13.436768,15.145979 15.851196,16.312885 15.851196,16.312885 C15.851196,16.312885 17.522095,17.08144 17.972412,17.262318 C18.495117,17.47247 18.95752,17.719212 19.237427,18.11512 C20.080933,19.309048 19.999878,20.998138 19.999878,20.998138 C19.999878,20.998138 15.991211,21.998425 10.999878,21.998425 C6.008423,21.998425 1.9997559,20.998138 1.9997559,20.998138 Z"/>
</svg>