<svg xmlns="http://www.w3.org/2000/svg"
 xmlns:xlink="http://www.w3.org/1999/xlink"
 width="21px" height="21px"  viewBox="0 0 21 21">
<path fill-rule="evenodd"  fill="#ffffff"
 d="M12.499878,1.9999619 C16.64209,1.9999619 19.999878,5.3576984 19.999878,9.499939 C19.999878,13.641991 16.64209,16.999912 12.499878,16.999912 C8.357788,16.999912 5.0,13.641991 5.0,9.499939 C5.0,5.3576984 8.357788,1.9999619 12.499878,1.9999619 ZM12.499878,3.9999695 C15.537476,3.9999695 17.999878,6.462309 17.999878,9.499939 C17.999878,12.53738 15.537476,14.999908 12.499878,14.999908 C9.46228,14.999908 7.0,12.53738 7.0,9.499939 C7.0,6.462309 9.46228,3.9999695 12.499878,3.9999695 ZM6.999878,12.999527 C6.999878,12.999527 8.999878,14.999533 8.999878,14.999533 C8.999878,14.999533 3.9997559,19.999268 3.9997559,19.999268 C3.9997559,19.999268 1.9997559,17.999447 1.9997559,17.999447 C1.9997559,17.999447 6.999878,12.999527 6.999878,12.999527 ZM11.999756,5.9994125 C11.999756,5.9994125 13.6657715,5.6654205 14.999756,6.999134 C16.332397,8.332096 15.999878,9.999237 15.999878,9.999237 C15.999878,9.999237 15.0008545,9.000452 13.999756,7.9994183 C13.0008545,7.0002594 11.999756,5.9994125 11.999756,5.9994125 Z"/>
</svg>